<?xml version="1.0" encoding="UTF-8" standalone="no"?>
<!DOCTYPE svg PUBLIC "-//W3C//DTD SVG 1.1//EN" "http://www.w3.org/Graphics/SVG/1.1/DTD/svg11.dtd">
<svg width="100%" height="100%" viewBox="0 0 1024 1024" version="1.1" xmlns="http://www.w3.org/2000/svg" xmlns:xlink="http://www.w3.org/1999/xlink" xml:space="preserve" xmlns:serif="http://www.serif.com/" style="fill-rule:evenodd;clip-rule:evenodd;stroke-linejoin:round;stroke-miterlimit:2;">
    <path d="M0,812C0,929.084 94.916,1024 212,1024L812,1024C929.084,1024 1024,929.084 1024,812L1024,212C1024,94.916 929.084,0 812,0L212,0C94.916,0 0,94.916 0,212L0,812Z" style="fill:rgb(253,218,13);"/>
    <path d="M773.828,438.341L773.828,389.068L650.744,192L608.227,192L541.093,353.238L475.077,214.446L438.138,214.382L326.272,478.653L326.272,227.833L250.172,227.833L250.172,250.007L192,250.007L192,327.26L250.172,327.26L250.172,550.306C250.172,570.098 266.227,586.141 286.004,586.141L324.033,586.141L324.033,832L401.683,831.946C401.683,831.946 401.695,720.762 401.695,720.644C401.695,658.964 455.026,608.963 520.963,608.563C521.198,608.563 521.445,608.535 521.707,608.535L521.875,608.535C629.722,608.612 717.139,690.28 717.139,790.983L717.139,832L773.828,832L773.828,611.427L832,611.427L832,489.487L773.828,438.341Z" style="fill:rgb(86,86,86);"/>
</svg>
